<?xml version="1.0" standalone="no"?>
<!DOCTYPE svg PUBLIC "-//W3C//DTD SVG 20010904//EN"
 "http://www.w3.org/TR/2001/REC-SVG-20010904/DTD/svg10.dtd">
<svg version="1.0" xmlns="http://www.w3.org/2000/svg"
 width="260.000000pt" height="260.000000pt" viewBox="0 0 260.000000 260.000000"
 preserveAspectRatio="xMidYMid meet">
<metadata>
Created by potrace 1.11, written by Peter Selinger 2001-2013
</metadata>
<g transform="translate(0.000000,260.000000) scale(0.100000,-0.100000)"
fill="#000000" stroke="none">
<path d="M0 1300 l0 -1300 1300 0 1300 0 0 1300 0 1300 -1300 0 -1300 0 0
-1300z m1785 744 c79 -27 121 -49 173 -91 155 -126 158 -349 8 -499 -57 -56
-101 -81 -211 -119 -18 -7 -17 -8 10 -17 42 -15 93 -54 109 -86 28 -55 29
-100 5 -219 -27 -132 -24 -144 41 -155 60 -10 73 -24 67 -70 -10 -74 -84 -145
-193 -184 -53 -20 -84 -24 -174 -24 -127 0 -192 19 -257 75 -79 68 -91 160
-43 349 36 142 36 148 7 182 -22 25 -31 28 -109 32 -77 4 -86 3 -90 -14 -59
-204 -98 -358 -98 -382 0 -24 12 -45 50 -87 27 -30 50 -57 50 -59 0 -22 -24
-58 -44 -66 -14 -5 -181 -10 -371 -11 -390 -1 -395 0 -395 66 0 31 7 41 60 81
70 55 66 45 151 349 34 121 95 336 135 478 41 142 74 271 74 287 0 17 -12 53
-26 80 -23 44 -24 52 -12 77 26 54 23 54 543 50 452 -3 484 -4 540 -23z"/>
<path d="M1281 1793 c-22 -82 -81 -327 -81 -336 0 -6 32 -8 80 -4 93 6 135 27
167 84 23 42 53 146 53 186 0 71 -51 107 -149 107 l-60 0 -10 -37z"/>
</g>
</svg>
